<svg width="273" height="32" viewBox="0 0 273 32" fill="none" xmlns="http://www.w3.org/2000/svg">
<path d="M0.50377 31.3601V0.413515H21.6284V6.48799H7.98354V12.8345H20.2836V18.9241H7.98354V31.3601H0.50377ZM52.6272 0.413515H60.0918V20.3747C60.0918 22.6816 59.5428 24.6913 58.4448 26.4038C57.3467 28.1063 55.8155 29.4259 53.8511 30.3628C51.8867 31.2896 49.605 31.753 47.006 31.753C44.3768 31.753 42.0799 31.2896 40.1156 30.3628C38.1512 29.4259 36.625 28.1063 35.537 26.4038C34.4491 24.6913 33.9051 22.6816 33.9051 20.3747V0.413515H41.3849V19.7249C41.3849 20.7927 41.6165 21.7447 42.0799 22.5808C42.5534 23.4169 43.2132 24.0717 44.0594 24.5452C44.9056 25.0187 45.8878 25.2554 47.006 25.2554C48.1242 25.2554 49.1014 25.0187 49.9375 24.5452C50.7837 24.0717 51.4435 23.4169 51.917 22.5808C52.3904 21.7447 52.6272 20.7927 52.6272 19.7249V0.413515ZM73.2902 31.3601V0.413515H86.0738C88.3908 0.413515 90.3904 0.831576 92.0727 1.6677C93.7651 2.49375 95.0697 3.68245 95.9864 5.23381C96.9031 6.77509 97.3615 8.60348 97.3615 10.719C97.3615 12.8647 96.893 14.688 95.9562 16.189C95.0193 17.6799 93.6896 18.8183 91.967 19.604C90.2444 20.3797 88.2044 20.7675 85.8472 20.7675H77.763V14.8744H84.457C85.5852 14.8744 86.5271 14.7283 87.2827 14.4362C88.0483 14.134 88.6275 13.6807 89.0204 13.0762C89.4133 12.4617 89.6097 11.676 89.6097 10.719C89.6097 9.76196 89.4133 8.97117 89.0204 8.3466C88.6275 7.71195 88.0483 7.23849 87.2827 6.9262C86.5171 6.60384 85.5752 6.44266 84.457 6.44266H80.77V31.3601H73.2902ZM90.7128 17.2165L98.4192 31.3601H90.2595L82.7041 17.2165H90.7128ZM136.312 0.413515V31.3601H129.966L117.651 13.4993H117.454V31.3601H109.974V0.413515H116.411L128.591 18.2441H128.848V0.413515H136.312ZM157.005 0.413515V31.3601H149.526V0.413515H157.005ZM169.199 6.48799V0.413515H195.355V6.48799H185.972V31.3601H178.598V6.48799H169.199ZM226.241 0.413515H233.706V20.3747C233.706 22.6816 233.157 24.6913 232.058 26.4038C230.96 28.1063 229.429 29.4259 227.465 30.3628C225.5 31.2896 223.219 31.753 220.62 31.753C217.99 31.753 215.694 31.2896 213.729 30.3628C211.765 29.4259 210.239 28.1063 209.151 26.4038C208.063 24.6913 207.519 22.6816 207.519 20.3747V0.413515H214.999V19.7249C214.999 20.7927 215.23 21.7447 215.694 22.5808C216.167 23.4169 216.827 24.0717 217.673 24.5452C218.519 25.0187 219.502 25.2554 220.62 25.2554C221.738 25.2554 222.715 25.0187 223.551 24.5452C224.397 24.0717 225.057 23.4169 225.531 22.5808C226.004 21.7447 226.241 20.7927 226.241 19.7249V0.413515ZM245.892 6.48799V0.413515H272.048V6.48799H262.664V31.3601H255.29V6.48799H245.892Z" fill="#fff"/>
</svg>
