<svg width="41" height="41" viewBox="0 0 41 41" fill="none" xmlns="http://www.w3.org/2000/svg">
<path d="M20.2226 33.7178L7.56895 17.9008C7.23643 17.4851 7.07018 17.2773 7.02551 17.0268C6.98084 16.7764 7.065 16.5239 7.23332 16.0189L9.31089 9.78624C9.7509 8.4662 9.97091 7.80618 10.4947 7.42866C11.0185 7.05115 11.7142 7.05115 13.1056 7.05115H27.3395C28.731 7.05115 29.4267 7.05115 29.9505 7.42866C30.4743 7.80618 30.6943 8.4662 31.1343 9.78624L33.2118 16.0189C33.3802 16.5239 33.4643 16.7764 33.4197 17.0268C33.375 17.2773 33.2087 17.4851 32.8762 17.9008L20.2226 33.7178ZM20.2226 33.7178L26.0559 15.3845M20.2226 33.7178L14.3893 15.3845M32.7226 17.0511L26.0559 15.3845M26.0559 15.3845L23.5559 8.71781M26.0559 15.3845H14.3893M16.8893 8.71781L14.3893 15.3845M14.3893 15.3845L7.72259 17.0511" stroke="#33363F" stroke-width="2" stroke-linecap="round"/>
</svg>
